<svg width="21" height="21" viewBox="0 0 21 21" fill="none" xmlns="http://www.w3.org/2000/svg">
  <path d="M18.2351 4.03376C17.7882 3.58664 17.2576 3.23195 16.6735 2.98996C16.0895 2.74797 15.4635 2.62341 14.8314 2.62341C14.1992 2.62341 13.5732 2.74797 12.9892 2.98996C12.4051 3.23195 11.8745 3.58664 11.4276 4.03376L10.5001 4.96126L9.5726 4.03376C8.66987 3.13103 7.44551 2.62388 6.16885 2.62388C4.8922 2.62388 3.66783 3.13103 2.7651 4.03376C1.86237 4.93649 1.35522 6.16086 1.35522 7.43751C1.35522 8.71416 1.86237 9.93853 2.7651 10.8413L3.6926 11.7688L10.5001 18.5763L17.3076 11.7688L18.2351 10.8413C18.6822 10.3943 19.0369 9.86372 19.2789 9.2797C19.5209 8.69567 19.6455 8.06969 19.6455 7.43751C19.6455 6.80533 19.5209 6.17935 19.2789 5.59532C19.0369 5.0113 18.6822 4.48067 18.2351 4.03376Z" 
  stroke="#8899A4" stroke-width="1.75" 
  stroke-linecap="round" stroke-linejoin="round"/>
</svg>